<svg width="708" height="155" viewBox="0 0 708 155" fill="none" xmlns="http://www.w3.org/2000/svg"><path fill-rule="evenodd" clip-rule="evenodd" d="M226.78 69.3725H208.14V108.102C208.14 111.522 208.78 113.932 210.07 115.312C210.7 115.992 211.51 116.502 212.49 116.862C213.5 117.222 214.7 117.422 216.08 117.442C217.52 117.462 219.13 117.462 220.91 117.422C222.68 117.382 224.63 117.322 226.76 117.222L227.4 117.192V129.692L226.87 129.762C221.32 130.492 216.51 130.632 212.43 130.182C208.31 129.722 204.93 128.662 202.29 126.992C199.62 125.302 197.63 122.862 196.3 119.682C194.99 116.542 194.33 112.682 194.33 108.102V69.3725H180V55.9525H194.33V39.5625L208.14 35.4225V55.9625H227.39V69.3824H226.78V69.3725ZM252.46 66.2525C254.47 62.7525 257.08 60.0325 260.29 58.1225C264.15 55.8125 268.87 54.6624 274.42 54.6624H275.03V69.1324L274.39 69.1024C271.37 68.9624 268.57 69.2925 265.99 70.0925C263.41 70.8925 261.04 72.1625 258.88 73.9025C256.75 75.6225 255.14 77.8725 254.07 80.6525C252.99 83.4625 252.45 86.8125 252.45 90.7025V129.792H238.64V55.9725H252.45V66.2625L252.46 66.2525ZM290.23 43.9725C288.95 43.9725 287.76 43.7525 286.68 43.3125C285.59 42.8725 284.6 42.2024 283.73 41.3224C282.85 40.4424 282.19 39.4725 281.75 38.4025C281.31 37.3325 281.08 36.1725 281.08 34.9425C281.08 33.7125 281.3 32.5425 281.74 31.4625C282.18 30.3825 282.84 29.3925 283.71 28.4925C285.47 26.6825 287.64 25.7625 290.22 25.7625C292.8 25.7625 294.83 26.6725 296.59 28.4925C297.46 29.3925 298.12 30.3825 298.56 31.4625C299 32.5425 299.22 33.7025 299.22 34.9425C299.22 36.1825 299 37.3425 298.56 38.4025C298.12 39.4725 297.46 40.4524 296.58 41.3224C295.7 42.2024 294.73 42.8625 293.67 43.3025C292.6 43.7425 291.45 43.9725 290.22 43.9725H290.23ZM283.25 129.162V55.9625H297.06C297.12 80.5525 297.12 105.182 297.06 129.782H283.25V129.172V129.162ZM371.31 26.9225H384.51V129.772H370.7V118.632C367.72 122.712 364.17 125.832 360.05 127.992C355.4 130.432 350.03 131.662 343.96 131.662C338.81 131.662 334.04 130.722 329.65 128.832C325.26 126.952 321.25 124.132 317.62 120.362C313.99 116.602 311.27 112.432 309.46 107.842C307.65 103.252 306.74 98.2625 306.74 92.8625C306.74 87.4625 307.65 82.4724 309.46 77.8824C311.27 73.2924 314 69.1225 317.62 65.3625C321.25 61.6025 325.26 58.7725 329.65 56.8925C334.04 55.0125 338.82 54.0625 343.96 54.0625C350.04 54.0625 355.41 55.2825 360.05 57.7325C364.17 59.8925 367.72 63.0224 370.7 67.1024V26.9225H371.31ZM345.55 118.242C352.71 118.242 358.7 115.812 363.5 110.942C365.9 108.512 367.7 105.792 368.9 102.782C370.1 99.7724 370.7 96.4625 370.7 92.8625C370.7 89.2625 370.1 85.9525 368.9 82.9425C367.7 79.9325 365.9 77.2125 363.5 74.7825C361.1 72.3525 358.4 70.5225 355.42 69.3125C352.43 68.0925 349.14 67.4925 345.55 67.4925C338.48 67.4925 332.55 69.9225 327.75 74.7924C325.35 77.2225 323.55 79.9425 322.35 82.9525C321.15 85.9625 320.55 89.2725 320.55 92.8725C320.55 96.4725 321.15 99.7824 322.35 102.792C323.55 105.802 325.35 108.522 327.75 110.952C330.15 113.382 332.84 115.212 335.8 116.422C338.76 117.632 342.01 118.242 345.56 118.242H345.55ZM461.64 120.452C457.87 124.192 453.69 126.992 449.1 128.862C444.52 130.732 439.53 131.662 434.15 131.662C428.77 131.662 423.78 130.722 419.21 128.862C414.64 126.992 410.48 124.192 406.72 120.452C402.97 116.722 400.16 112.552 398.28 107.952C396.4 103.352 395.46 98.3225 395.46 92.8725C395.46 87.4225 396.4 82.4025 398.28 77.8025C400.16 73.2025 402.97 69.0325 406.72 65.3025C410.47 61.5625 414.63 58.7625 419.21 56.8925C423.78 55.0225 428.76 54.0925 434.15 54.0925C439.54 54.0925 444.52 55.0325 449.1 56.8925C453.68 58.7625 457.86 61.5625 461.64 65.3025C465.41 69.0425 468.25 73.2125 470.14 77.8125C472.03 82.4125 472.97 87.4425 472.97 92.8825C472.97 98.3225 472.02 103.362 470.14 107.962C468.25 112.562 465.42 116.732 461.64 120.472V120.452ZM434.15 118.092C437.69 118.092 440.94 117.492 443.91 116.282C446.87 115.082 449.56 113.272 451.96 110.862C454.36 108.452 456.16 105.752 457.36 102.752C458.56 99.7525 459.16 96.4524 459.16 92.8524C459.16 89.2524 458.56 85.9525 457.36 82.9525C456.16 79.9625 454.36 77.2525 451.96 74.8425C449.56 72.4325 446.88 70.6325 443.91 69.4225C440.95 68.2225 437.69 67.6125 434.15 67.6125C430.61 67.6125 427.44 68.2125 424.5 69.4225C421.56 70.6225 418.89 72.4325 416.49 74.8425C414.09 77.2525 412.29 79.9525 411.09 82.9525C409.89 85.9525 409.29 89.2524 409.29 92.8524C409.29 96.4524 409.89 99.7525 411.09 102.752C412.29 105.742 414.09 108.452 416.49 110.862C418.89 113.272 421.56 115.082 424.5 116.282C427.44 117.482 430.66 118.092 434.15 118.092ZM496.15 66.2525C498.16 62.7525 500.77 60.0325 503.98 58.1225C507.84 55.8125 512.55 54.6624 518.11 54.6624H518.72V69.1324L518.08 69.1024C515.06 68.9624 512.26 69.2925 509.68 70.0925C507.1 70.8925 504.73 72.1625 502.57 73.9025C500.44 75.6225 498.83 77.8725 497.76 80.6525C496.68 83.4625 496.14 86.8125 496.14 90.7025V129.792H482.33V55.9725H496.14V66.2625L496.15 66.2525ZM533.93 43.9725C532.65 43.9725 531.46 43.7525 530.38 43.3125C529.29 42.8725 528.3 42.2024 527.43 41.3224C526.55 40.4424 525.89 39.4725 525.45 38.4025C525.01 37.3325 524.78 36.1725 524.78 34.9425C524.78 33.7125 525 32.5425 525.44 31.4625C525.88 30.3825 526.54 29.3925 527.41 28.4925C529.17 26.6825 531.34 25.7625 533.92 25.7625C536.5 25.7625 538.53 26.6725 540.29 28.4925C541.16 29.3925 541.82 30.3825 542.26 31.4625C542.7 32.5425 542.92 33.7025 542.92 34.9425C542.92 36.1825 542.7 37.3425 542.26 38.4025C541.82 39.4725 541.16 40.4524 540.28 41.3224C539.4 42.2024 538.43 42.8625 537.37 43.3025C536.3 43.7425 535.15 43.9725 533.92 43.9725H533.93ZM526.95 129.162V55.9625H540.76V129.782H526.95V129.172V129.162ZM615 55.9525H628.2V129.772H614.39V118.632C611.41 122.712 607.86 125.832 603.74 127.992C599.09 130.432 593.72 131.662 587.64 131.662C582.49 131.662 577.72 130.722 573.33 128.832C568.94 126.952 564.93 124.132 561.3 120.362C557.67 116.602 554.95 112.432 553.14 107.842C551.33 103.252 550.42 98.2625 550.42 92.8625C550.42 87.4625 551.33 82.4724 553.14 77.8824C554.95 73.2924 557.68 69.1225 561.3 65.3625C564.93 61.6025 568.94 58.7725 573.33 56.8925C577.72 55.0125 582.5 54.0625 587.64 54.0625C593.72 54.0625 599.09 55.2825 603.74 57.7325C607.86 59.8925 611.41 63.0224 614.39 67.1024V55.9625H615V55.9525ZM589.24 118.242C596.4 118.242 602.39 115.812 607.19 110.942C609.59 108.512 611.39 105.792 612.59 102.782C613.79 99.7724 614.39 96.4625 614.39 92.8625C614.39 89.2625 613.79 85.9525 612.59 82.9425C611.39 79.9325 609.59 77.2125 607.19 74.7825C604.79 72.3525 602.09 70.5225 599.11 69.3125C596.12 68.0925 592.83 67.4925 589.24 67.4925C582.17 67.4925 576.24 69.9225 571.43 74.7924C569.03 77.2225 567.23 79.9425 566.03 82.9525C564.83 85.9625 564.23 89.2725 564.23 92.8725C564.23 96.4725 564.83 99.7824 566.03 102.792C567.23 105.802 569.03 108.522 571.43 110.952C573.83 113.382 576.52 115.212 579.48 116.422C582.44 117.632 585.69 118.242 589.24 118.242ZM678.43 54.0724C687.09 54.0724 694.04 56.8224 699.28 62.3224C704.51 67.8124 707.12 75.2325 707.12 84.5925V129.772H693.31V85.3125C693.31 82.4225 692.92 79.8725 692.15 77.6525C691.38 75.4525 690.23 73.5725 688.71 72.0225C687.18 70.4725 685.36 69.3025 683.25 68.5225C681.13 67.7425 678.7 67.3425 675.97 67.3425C669.87 67.3425 664.94 69.2425 661.21 73.0325C657.47 76.8325 655.6 82.7125 655.6 90.6825V129.772H641.79V55.9525H655.6V65.0025C658.02 61.6325 660.95 59.0325 664.4 57.2225C668.4 55.1225 673.08 54.0625 678.43 54.0625V54.0724Z" fill="white"></path><path d="M81.2 17.0625C81.2 15.4525 81.63 13.9825 82.35 12.7325C84.22 9.48248 87.24 7.6725 89.74 7.0025L83.57 3.4425C75.62 -1.1475 65.83 -1.1475 57.88 3.4425L51.71 7.0025C54.21 7.6725 57.22 9.48248 59.1 12.7325C59.82 13.9825 60.25 15.4525 60.25 17.0625V62.1825L70.73 68.2325L81.21 62.1825V17.0625H81.2Z" fill="#00FF89"></path><path d="M12.99 93.5224L20.97 88.9124V58.3824L0.0100098 46.2825V86.0225C0.0100098 92.6825 7.22001 96.8525 12.99 93.5125V93.5224Z" fill="#00FF89"></path><path d="M28.13 119.743C22.36 123.073 22.36 131.403 28.13 134.733L62.55 154.603V130.393L36.12 115.133L28.14 119.743H28.13Z" fill="#00FF89"></path><path d="M62.54 82.3925L52.06 76.3425L12.98 98.9025C11.58 99.7125 10.1 100.073 8.64999 100.073C4.89999 100.073 1.83 98.3725 0 96.5425V103.673C0 112.853 4.9 121.333 12.84 125.923L19.01 129.483C18.34 126.983 18.4 123.463 20.28 120.223C21 118.973 22.06 117.873 23.46 117.063L62.54 94.5025V82.4025V82.3925Z" fill="#00FF89"></path><path d="M85.8601 19.7525V28.9725L112.3 44.2325L133.26 32.1324L98.8401 12.2625C93.0701 8.93245 85.8601 13.0925 85.8601 19.7525Z" fill="#00FF89"></path><path d="M55.5799 28.9725V19.7525C55.5799 13.0925 48.3699 8.93245 42.5999 12.2625L8.17993 32.1324L29.1399 44.2325L55.5799 28.9725Z" fill="#00FF89"></path><path d="M120.46 88.9125L128.44 93.5225C134.21 96.8525 141.42 92.6925 141.42 86.0325V46.2925L120.46 58.3925V88.9225V88.9125Z" fill="#00FF89"></path><path d="M113.31 119.743L105.33 115.133L78.8899 130.393V154.603L113.31 134.733C119.08 131.403 119.08 123.073 113.31 119.743Z" fill="#00FF89"></path><path d="M132.77 100.073C131.33 100.073 129.84 99.7125 128.44 98.9025L89.3599 76.3425L78.8799 82.3925V94.4925L117.96 117.053C119.36 117.863 120.42 118.962 121.14 120.212C123.01 123.462 123.08 126.973 122.41 129.473L128.58 125.913C136.53 121.323 141.43 112.843 141.42 103.663V96.5325C139.59 98.3625 136.51 100.063 132.76 100.063L132.77 100.073Z" fill="#00FF89"></path></svg>